<?xml version="1.0" encoding="UTF-8" standalone="no"?>
<svg width="342px" height="106px" viewBox="0 0 342 106" version="1.1" xmlns="http://www.w3.org/2000/svg" xmlns:xlink="http://www.w3.org/1999/xlink" xmlns:sketch="http://www.bohemiancoding.com/sketch/ns">
    <title>teamhub-logo</title>
    <description>Created with Sketch (http://www.bohemiancoding.com/sketch)</description>
    <defs>
        <path id="path-1" d="M0,0.04 L341.798,0.04 L341.798,106 L0,106"></path>
        <mask id="mask-2" sketch:name="Clip 2" fill="white">
            <use xlink:href="#path-1"></use>
        </mask>
    </defs>
    <g id="Page-1" stroke="none" stroke-width="1" fill="none" fill-rule="evenodd" sketch:type="MSPage">
        <g id="teamhub_color" sketch:type="MSLayerGroup">
            <g id="Group-4">
                <g id="Clip-2"></g>
                <path d="M86.8,71.989 C86.8,71.824 86.544,72 86.544,72 L32.706,72 C30.712,72 28.568,69.228 28.568,67.234 L28.568,39 L13.568,39 L13.568,71.878 C13.568,72.043 0,97.518 0,97.518 C0,101.844 4.355,106 8.68,106 L93.655,106 C97.981,106 101.489,102.133 101.489,97.807 L86.8,71.989" id="Fill-1" fill="#1F66A3" sketch:type="MSShapeGroup" mask="url(#mask-2)"></path>
                <path d="M37.801,31 L69.008,31 C71.002,31 70.568,30.331 70.568,32.325 L70.568,64 L84.568,64 L84.568,22.537 C84.568,18.211 81.553,15 77.226,15 L31.568,15 L31.568,6.871 C31.568,2.543 28.675,0 24.348,0 L23.37,0 C19.042,0 13.568,2.543 13.568,6.871 L13.568,31 L37.801,31" id="Fill-3" fill="#1F66A3" sketch:type="MSShapeGroup" mask="url(#mask-2)"></path>
            </g>
            <path d="M122.408,42.792 L110.74,42.792 L110.74,34.821 L143.088,34.821 L143.088,42.792 L131.419,42.792 L131.419,75.718 L122.408,75.718 L122.408,42.792" id="Fill-5" fill="#0A0B09" sketch:type="MSShapeGroup"></path>
            <path d="M157.645,58.505 C157.684,57.041 157.202,55.789 156.201,54.75 C155.199,53.71 153.91,53.189 152.331,53.189 C151.368,53.189 150.521,53.344 149.789,53.652 C149.057,53.961 148.431,54.354 147.912,54.836 C147.392,55.318 146.988,55.877 146.699,56.512 C146.41,57.146 146.246,57.811 146.208,58.505 L157.645,58.505 L157.645,58.505 Z M164.981,70.865 C163.595,72.637 161.842,74.005 159.725,74.967 C157.606,75.93 155.411,76.411 153.139,76.411 C150.982,76.411 148.952,76.064 147.045,75.372 C145.14,74.678 143.483,73.687 142.078,72.396 C140.672,71.106 139.564,69.559 138.756,67.746 C137.947,65.937 137.543,63.915 137.543,61.682 C137.543,59.447 137.947,57.427 138.756,55.616 C139.564,53.807 140.672,52.256 142.078,50.966 C143.483,49.676 145.14,48.684 147.045,47.991 C148.952,47.297 150.982,46.951 153.139,46.951 C155.141,46.951 156.961,47.297 158.599,47.991 C160.235,48.684 161.621,49.676 162.757,50.966 C163.893,52.256 164.769,53.807 165.386,55.616 C166.001,57.427 166.31,59.447 166.31,61.682 L166.31,64.396 L146.208,64.396 C146.554,66.052 147.305,67.37 148.46,68.352 C149.616,69.335 151.04,69.826 152.735,69.826 C154.16,69.826 155.363,69.509 156.346,68.873 C157.328,68.237 158.184,67.419 158.916,66.419 L164.981,70.865 L164.981,70.865 Z" id="Fill-6" fill="#0A0B09" sketch:type="MSShapeGroup"></path>
            <path d="M185.313,63.413 C184.657,63.413 183.841,63.444 182.858,63.501 C181.876,63.559 180.934,63.723 180.027,63.992 C179.123,64.261 178.354,64.665 177.717,65.205 C177.082,65.745 176.766,66.495 176.766,67.457 C176.766,68.498 177.206,69.268 178.094,69.77 C178.978,70.27 179.902,70.52 180.866,70.52 C181.714,70.52 182.53,70.402 183.32,70.173 C184.109,69.94 184.813,69.615 185.429,69.191 C186.045,68.768 186.536,68.229 186.902,67.572 C187.268,66.919 187.451,66.149 187.451,65.262 L187.451,63.413 L185.313,63.413 L185.313,63.413 Z M187.451,72.194 L187.335,72.194 C186.373,73.695 185.092,74.775 183.494,75.429 C181.896,76.084 180.211,76.411 178.439,76.411 C177.13,76.411 175.869,76.229 174.657,75.862 C173.442,75.498 172.374,74.948 171.45,74.216 C170.526,73.484 169.794,72.58 169.255,71.501 C168.715,70.424 168.447,69.173 168.447,67.746 C168.447,66.129 168.744,64.763 169.342,63.646 C169.938,62.529 170.746,61.605 171.769,60.874 C172.787,60.143 173.953,59.573 175.263,59.169 C176.571,58.764 177.929,58.465 179.336,58.272 C180.74,58.08 182.146,57.965 183.553,57.927 C184.957,57.889 186.258,57.868 187.451,57.868 C187.451,56.329 186.902,55.105 185.805,54.2 C184.706,53.296 183.407,52.843 181.906,52.843 C180.48,52.843 179.18,53.142 178.006,53.738 C176.831,54.336 175.783,55.154 174.859,56.193 L170.236,51.457 C171.854,49.955 173.74,48.828 175.898,48.078 C178.054,47.327 180.288,46.951 182.598,46.951 C185.141,46.951 187.229,47.269 188.866,47.904 C190.502,48.54 191.812,49.474 192.794,50.706 C193.776,51.939 194.459,53.449 194.845,55.24 C195.23,57.03 195.423,59.102 195.423,61.45 L195.423,75.718 L187.451,75.718 L187.451,72.194 L187.451,72.194 Z" id="Fill-7" fill="#0A0B09" sketch:type="MSShapeGroup"></path>
            <path d="M199.119,47.644 L207.437,47.644 L207.437,51.457 L207.553,51.457 C207.822,50.917 208.206,50.379 208.707,49.84 C209.209,49.3 209.806,48.819 210.498,48.396 C211.191,47.972 211.981,47.625 212.867,47.355 C213.753,47.086 214.715,46.951 215.754,46.951 C217.719,46.951 219.46,47.355 220.983,48.164 C222.505,48.973 223.649,50.244 224.42,51.977 C225.421,50.167 226.633,48.877 228.059,48.106 C229.483,47.336 231.235,46.951 233.316,46.951 C235.201,46.951 236.791,47.269 238.08,47.904 C239.372,48.54 240.391,49.406 241.144,50.504 C241.894,51.602 242.432,52.892 242.76,54.374 C243.087,55.856 243.252,57.446 243.252,59.139 L243.252,75.718 L234.586,75.718 L234.586,59.371 C234.586,58.062 234.308,56.936 233.749,55.991 C233.19,55.047 232.199,54.576 230.773,54.576 C229.772,54.576 228.934,54.741 228.261,55.067 C227.588,55.395 227.049,55.846 226.644,56.424 C226.239,57.003 225.95,57.676 225.777,58.447 C225.604,59.218 225.518,60.026 225.518,60.874 L225.518,75.718 L216.853,75.718 L216.853,60.874 C216.853,60.372 216.833,59.757 216.795,59.023 C216.756,58.294 216.622,57.6 216.391,56.944 C216.159,56.29 215.785,55.731 215.265,55.27 C214.744,54.807 213.982,54.576 212.981,54.576 C211.865,54.576 210.961,54.778 210.268,55.182 C209.574,55.587 209.043,56.127 208.68,56.801 C208.312,57.474 208.073,58.236 207.957,59.082 C207.841,59.93 207.782,60.815 207.782,61.739 L207.782,75.718 L199.119,75.718 L199.119,47.644" id="Fill-8" fill="#0A0B09" sketch:type="MSShapeGroup"></path>
            <path d="M256.307,32.047 L256.307,51.457 L256.423,51.457 C256.614,50.917 256.941,50.379 257.403,49.84 C257.865,49.3 258.424,48.819 259.079,48.396 C259.733,47.972 260.504,47.625 261.39,47.355 C262.275,47.086 263.237,46.951 264.278,46.951 C266.474,46.951 268.244,47.289 269.592,47.962 C270.939,48.636 271.989,49.57 272.74,50.764 C273.492,51.958 274.002,53.363 274.271,54.979 C274.54,56.599 274.676,58.351 274.676,60.237 L274.676,75.718 L266.012,75.718 L266.012,61.969 C266.012,61.161 265.982,60.323 265.925,59.457 C265.866,58.591 265.693,57.792 265.404,57.061 C265.115,56.329 264.673,55.731 264.076,55.27 C263.478,54.807 262.622,54.576 261.506,54.576 C260.389,54.576 259.482,54.778 258.79,55.182 C258.097,55.587 257.567,56.127 257.201,56.801 C256.836,57.474 256.596,58.236 256.479,59.082 C256.364,59.93 256.307,60.815 256.307,61.739 L256.307,75.718 L247.642,75.718 L247.642,32.047 L256.307,32.047" id="Fill-9" fill="#0A0B09" sketch:type="MSShapeGroup"></path>
            <path d="M306.099,75.718 L297.78,75.718 L297.78,71.905 L297.665,71.905 C297.356,72.445 296.961,72.984 296.48,73.524 C295.999,74.063 295.411,74.543 294.719,74.967 C294.025,75.391 293.235,75.736 292.35,76.008 C291.464,76.275 290.502,76.411 289.463,76.411 C287.267,76.411 285.486,76.073 284.118,75.4 C282.752,74.727 281.693,73.793 280.941,72.6 C280.19,71.406 279.69,69.999 279.439,68.383 C279.188,66.765 279.064,65.013 279.064,63.126 L279.064,47.644 L287.729,47.644 L287.729,61.393 C287.729,62.202 287.758,63.039 287.816,63.906 C287.873,64.772 288.047,65.571 288.335,66.303 C288.624,67.033 289.066,67.63 289.665,68.093 C290.262,68.555 291.118,68.787 292.235,68.787 C293.352,68.787 294.256,68.585 294.949,68.18 C295.643,67.775 296.172,67.235 296.537,66.563 C296.903,65.889 297.145,65.127 297.26,64.279 C297.376,63.435 297.435,62.548 297.435,61.623 L297.435,47.644 L306.099,47.644 L306.099,75.718" id="Fill-10" fill="#0A0B09" sketch:type="MSShapeGroup"></path>
            <path d="M319.27,61.682 C319.27,63.799 319.875,65.513 321.089,66.822 C322.302,68.132 324.005,68.787 326.2,68.787 C328.396,68.787 330.1,68.132 331.313,66.822 C332.525,65.513 333.132,63.799 333.132,61.682 C333.132,59.563 332.525,57.851 331.313,56.541 C330.1,55.23 328.396,54.576 326.2,54.576 C324.005,54.576 322.302,55.23 321.089,56.541 C319.875,57.851 319.27,59.563 319.27,61.682 L319.27,61.682 Z M311.298,32.047 L319.963,32.047 L319.963,50.648 L320.077,50.648 C321.078,49.3 322.358,48.347 323.919,47.789 C325.479,47.231 327.163,46.951 328.973,46.951 C330.976,46.951 332.766,47.366 334.345,48.193 C335.924,49.022 337.263,50.128 338.359,51.514 C339.458,52.9 340.305,54.489 340.901,56.28 C341.498,58.07 341.798,59.948 341.798,61.912 C341.798,64.031 341.469,65.975 340.815,67.746 C340.159,69.519 339.226,71.049 338.014,72.34 C336.801,73.63 335.346,74.63 333.652,75.342 C331.957,76.055 330.071,76.411 327.99,76.411 C326.99,76.411 326.046,76.275 325.16,76.008 C324.274,75.736 323.457,75.391 322.706,74.967 C321.955,74.543 321.3,74.072 320.741,73.552 C320.183,73.031 319.731,72.521 319.384,72.021 L319.27,72.021 L319.27,75.718 L311.298,75.718 L311.298,32.047 L311.298,32.047 Z" id="Fill-11" fill="#0A0B09" sketch:type="MSShapeGroup"></path>
        </g>
    </g>
</svg>